<?xml version="1.0" encoding="UTF-8"?><svg id="Layer_1" xmlns="http://www.w3.org/2000/svg" viewBox="0 0 87.28 91.66"><defs><style>.cls-1{fill:#fff;stroke-width:0px;}</style></defs><path class="cls-1" d="M33.6,38.36l10.04,5.8,37.83-21.84-10.04-5.8-37.83,21.84ZM19.7,30.34l10.05,5.8,37.83-21.84-10.04-5.8L19.7,30.34ZM43.64.48L5.81,22.32l10.04,5.8L53.69,6.27,43.64.48Z"/><path class="cls-1" d="M3.88,69.34l37.83,21.84v-11.6L3.88,57.74v11.6ZM3.88,53.3l37.83,21.84v-11.6L3.88,41.7v11.6ZM3.88,37.25l37.83,21.84v-11.6L3.88,25.65v11.6Z"/><path class="cls-1" d="M45.57,47.5v43.69l10.05-5.8v-43.69l-10.05,5.8ZM59.46,39.47v43.69l10.04-5.8v-43.69l-10.04,5.8ZM73.36,31.45v43.69l10.05-5.8V25.65l-10.05,5.8Z"/></svg>