<?xml version="1.0" encoding="UTF-8"?><svg id="Layer_1" xmlns="http://www.w3.org/2000/svg" viewBox="0 0 139.22 91.01"><defs><style>.cls-1{fill:#fff;stroke-width:0px;}</style></defs><path class="cls-1" d="M139.22,43.31h-8.09c-1.43-18.5-21.09-34.12-59.33-34.7V.59h-4.38v8.02C29.18,9.19,9.52,24.81,8.09,43.31H0v4.38h8.09c1.43,18.5,21.09,34.12,59.33,34.7v8.02h4.38v-8.02c38.24-.58,57.9-16.2,59.33-34.7h8.09v-4.38h0ZM71.8,79.3v-3.14c33.1-.56,49.34-13.69,50.79-28.46h5.45c-1.44,15.93-18.7,31.03-56.23,31.6h0ZM34.93,43.31c1.52-10.44,14.06-16.62,32.49-17.07v17.07h-32.49ZM67.42,47.7v17.07c-18.43-.45-30.97-6.62-32.49-17.07h32.49ZM71.8,26.25c18.43.45,30.97,6.62,32.49,17.07h-32.49v-17.07h0ZM104.29,47.7c-1.52,10.44-14.06,16.62-32.49,17.07v-17.07h32.49ZM11.19,47.7h5.44c1.45,14.77,17.69,27.91,50.79,28.46v3.14c-37.53-.57-54.79-15.67-56.23-31.6h0ZM67.42,11.71v3.14c-33.1.56-49.34,13.69-50.79,28.46h-5.44c1.44-15.93,18.7-31.03,56.23-31.6h0ZM128.04,43.31h-5.45c-1.45-14.77-17.69-27.91-50.79-28.46v-3.14c37.53.57,54.79,15.67,56.23,31.6h0Z"/></svg>