<?xml version="1.0" encoding="UTF-8"?><svg id="Layer_1" xmlns="http://www.w3.org/2000/svg" xmlns:xlink="http://www.w3.org/1999/xlink" viewBox="0 0 139.22 91.01"><defs><style>.cls-1{fill:url(#OD_Gradient);stroke-width:0px;}</style><linearGradient id="OD_Gradient" x1="0" y1="45.5" x2="139.22" y2="45.5" gradientTransform="translate(139.22) rotate(-180) scale(1 -1)" gradientUnits="userSpaceOnUse"><stop offset="0" stop-color="#003b5c"/><stop offset="1" stop-color="#2b84b1"/></linearGradient></defs><path class="cls-1" d="M0,43.31v4.38s8.09,0,8.09,0c1.43,18.5,21.09,34.13,59.33,34.7v8.02s4.38,0,4.38,0v-8.02c38.24-.58,57.9-16.2,59.33-34.7h8.09s0-4.38,0-4.38h-8.09c-1.43-18.5-21.09-34.13-59.33-34.7V.59s-4.38,0-4.38,0v8.02C29.18,9.19,9.52,24.81,8.09,43.31H0ZM67.42,79.3c-37.53-.57-54.79-15.67-56.23-31.6h5.45c1.45,14.77,17.68,27.91,50.79,28.46v3.14h0ZM104.29,43.31h-32.49v-17.07c18.43.45,30.97,6.62,32.49,17.07h0ZM71.8,47.7h32.49c-1.52,10.44-14.06,16.62-32.49,17.07v-17.07h0ZM67.42,26.25v17.07h-32.49c1.52-10.44,14.06-16.62,32.49-17.07h0ZM34.93,47.7h32.49v17.07c-18.43-.45-30.97-6.62-32.49-17.07h0ZM128.04,47.7c-1.44,15.93-18.7,31.03-56.23,31.6v-3.14c33.1-.56,49.34-13.69,50.79-28.46h5.44ZM71.8,11.71c37.53.57,54.79,15.67,56.23,31.6h-5.44c-1.45-14.77-17.68-27.91-50.79-28.46v-3.14h0ZM11.19,43.31c1.44-15.93,18.71-31.03,56.23-31.6v3.14c-33.1.56-49.34,13.69-50.79,28.46h-5.45Z"/></svg>