<?xml version="1.0" encoding="UTF-8"?><svg id="Layer_1" xmlns="http://www.w3.org/2000/svg" viewBox="0 0 425.2 91.77"><defs><style>.cls-1{fill:#fff;stroke-width:0px;}</style></defs><polygon class="cls-1" points="188.74 23 197.03 23 197.03 56.74 188.74 56.74 188.74 23 188.74 23"/><path class="cls-1" d="M132.34,42.91v-19.88h8.29v35.77c-5.69-5.28-13.73-12.17-19.72-16.88-8.49-6.66-17.36-11.04-24.35-11.04v25.89h-8.29V22.18c9.38,0,22.18,3.92,33.2,12.33,3.73,2.85,7.47,5.56,10.88,8.4h0Z"/><path class="cls-1" d="M245.75,42.91v-19.88h8.29v35.77c-5.69-5.28-13.73-12.17-19.72-16.88-8.49-6.66-17.36-11.04-24.35-11.04v25.89h-8.29V22.18c9.38,0,22.18,3.92,33.2,12.33,3.73,2.85,7.47,5.56,10.88,8.4h0Z"/><polygon class="cls-1" points="145.28 23 153.56 23 153.56 51.71 185.3 51.71 185.3 56.74 145.28 56.74 145.28 23 145.28 23"/><path class="cls-1" d="M53.02,51.28c12.74,0,21.24-4.32,21.24-11.76s-8.49-11.76-21.24-11.76-21.24,4.32-21.24,11.76,8.49,11.76,21.24,11.76h0ZM85.39,39.52c0,9.73-10.27,18.7-32.37,18.7s-32.37-8.97-32.37-18.7,10.27-18.7,32.37-18.7,32.37,8.97,32.37,18.7h0Z"/><polygon class="cls-1" points="258.68 23 311.41 23 311.41 28.03 266.97 28.03 266.97 37.35 301.91 37.35 301.91 41.27 266.97 41.27 266.97 51.71 311.41 51.71 311.41 56.74 266.97 56.74 258.68 56.74 258.68 23 258.68 23"/><path class="cls-1" d="M303.56,72.1h1.12v-6.68l6.73,7.05v-9.33h-1.12v6.62l-6.73-7.05v9.39h0ZM289.32,71.24c-1.94,0-3.58-1.58-3.58-3.63s1.47-3.63,3.58-3.63,3.58,1.65,3.58,3.63-1.64,3.63-3.58,3.63h0ZM289.32,62.94c-2.57,0-4.7,2.1-4.7,4.67s2.11,4.67,4.7,4.67,4.7-2.01,4.7-4.67-2.13-4.67-4.7-4.67h0ZM275.01,63.13h-1.12v8.96h1.12v-8.96h0ZM262.35,64.15h2.13v-1.02h-5.37v1.02h2.13v7.94h1.12v-7.94h0ZM243.25,63.13v5.67c0,1.97,1.22,3.48,3.28,3.48s3.28-1.51,3.28-3.48v-5.67h-1.12v5.29c0,1.46-.44,2.82-2.16,2.82s-2.16-1.36-2.16-2.82v-5.29h-1.12ZM228.38,72.1h2.09c1.58,0,3.11-.71,3.11-2.51,0-1.05-.74-2.08-1.79-2.27.61-.31.96-1.07.96-1.72,0-2.02-1.59-2.46-3.28-2.46h-1.09v8.96h0ZM229.5,67.99h.69c1,0,2.28.26,2.28,1.52s-1.08,1.58-2.12,1.58h-.86v-3.1h0ZM229.5,64.13h.31c1.05,0,1.9.21,1.9,1.47s-.87,1.5-1.93,1.5h-.28v-2.97h0ZM218.23,63.13h-1.12v8.96h1.12v-8.96h0ZM203.24,64.13h.3c1.11,0,2.44.2,2.44,1.6s-1.24,1.64-2.38,1.64h-.36v-3.25h0ZM204.87,68.2c1.3-.15,2.15-1.22,2.15-2.51,0-.86-.43-1.7-1.18-2.14-.71-.4-1.57-.42-2.37-.42h-1.35v8.96h1.12v-3.79h.46l2.64,3.79h1.36l-2.83-3.9h0ZM190.54,64.15h2.13v-1.02h-5.38v1.02h2.13v7.94h1.12v-7.94h0ZM178.05,64.3c-.49-.87-1.31-1.36-2.31-1.36-1.36,0-2.64.87-2.64,2.32,0,1.25.93,1.83,1.95,2.27l.62.26c.77.32,1.55.74,1.55,1.7s-.69,1.75-1.65,1.75-1.75-.71-1.74-1.7l-1.13.24c.19,1.44,1.32,2.51,2.77,2.51,1.61,0,2.87-1.17,2.87-2.79,0-1.5-.95-2.2-2.22-2.7l-.64-.25c-.56-.21-1.25-.58-1.25-1.28,0-.78.78-1.27,1.5-1.27s1.11.29,1.44.84l.89-.53h0ZM162.93,63.13h-1.12v8.96h1.12v-8.96h0ZM146.39,64.15h.39c2.28,0,4.26.84,4.26,3.46s-1.97,3.46-4.26,3.46h-.39v-6.92h0ZM145.28,72.1h1.82c2.83,0,5.07-1.47,5.07-4.53s-2.28-4.43-5.03-4.43h-1.85v8.96h0Z"/><polyline class="cls-1" points="4.85 87.64 420.82 87.64 420.82 86.53 4.85 86.53"/><polyline class="cls-1" points="420.82 4.13 4.85 4.13 4.85 5.24 420.82 5.24"/><path class="cls-1" d="M421.05,74.3c-4.67,1.18-10,1.89-15.87,2.09v-19.6h15.87v-5.04h-15.87v-19.6c5.87.2,11.2.9,15.87,2.09v-13.87c-4.85-.75-10.13-1.21-15.87-1.35v-3.61c5.7.12,10.98.54,15.87,1.21v-3.59c-4.94-.66-10.22-1.07-15.87-1.19v-7.7h-5.04v7.68c-44.56.44-67.46,18.51-69.12,39.93h-9.44v5.04h9.44c.95,12.29,8.91,23.47,23.94,30.86h9.19c-19.1-6.67-28.45-18.54-29.56-30.86h6.26c1.35,13.74,13.83,26.24,38.68,30.86h41.53v-13.34ZM400.14,76.43c-21.67-.34-36.47-7.47-38.25-19.65h38.25v19.65ZM400.14,51.74h-38.25c1.78-12.18,16.57-19.3,38.25-19.65v19.65ZM400.14,18.99c-38.67.42-57.61,15.63-59.29,32.75h-6.26c1.67-18.45,21.78-35.93,65.56-36.36v3.61Z"/></svg>