<?xml version="1.0" encoding="UTF-8"?><svg id="Layer_1" xmlns="http://www.w3.org/2000/svg" xmlns:xlink="http://www.w3.org/1999/xlink" viewBox="0 0 425.2 91.77"><defs><style>.cls-1{fill:#003b5c;}.cls-1,.cls-2{stroke-width:0px;}.cls-2{fill:url(#OD_Gradient);}</style><linearGradient id="OD_Gradient" x1="484.9" y1="45.89" x2="321.34" y2="45.89" gradientUnits="userSpaceOnUse"><stop offset="0" stop-color="#003b5c"/><stop offset="1" stop-color="#2b84b1"/></linearGradient></defs><path class="cls-2" d="M421.05,74.3c-4.67,1.18-10,1.89-15.87,2.09v-19.6h15.87v-5.04h-15.87v-19.6c5.87.2,11.2.9,15.87,2.09v-13.87c-4.85-.75-10.13-1.21-15.87-1.35v-3.61c5.7.12,10.98.54,15.87,1.21v-3.59c-4.94-.66-10.22-1.07-15.87-1.19v-7.7h-5.04v7.68c-44.56.44-67.46,18.51-69.12,39.93h-9.44v5.04h9.44c.95,12.29,8.91,23.47,23.94,30.86h9.19c-19.1-6.67-28.45-18.54-29.56-30.86h6.26c1.35,13.74,13.83,26.24,38.68,30.86h41.53v-13.34ZM400.14,76.43c-21.67-.34-36.47-7.47-38.25-19.65h38.25v19.65ZM400.14,51.74h-38.25c1.78-12.18,16.57-19.3,38.25-19.65v19.65ZM400.14,18.99c-38.67.42-57.61,15.63-59.29,32.75h-6.26c1.67-18.45,21.78-35.93,65.56-36.36v3.61Z"/><polygon class="cls-1" points="188.87 22.99 197.16 22.99 197.16 56.75 188.87 56.75 188.87 22.99 188.87 22.99"/><path class="cls-1" d="M132.45,42.91v-19.89h8.29v35.79c-5.7-5.28-13.73-12.18-19.73-16.88-8.49-6.66-17.37-11.05-24.36-11.05v25.9h-8.29V22.17c9.38,0,22.19,3.92,33.21,12.33,3.73,2.85,7.48,5.56,10.88,8.4h0Z"/><path class="cls-1" d="M245.9,42.91v-19.89h8.29v35.79c-5.7-5.28-13.73-12.18-19.73-16.88-8.49-6.66-17.37-11.05-24.36-11.05v25.9h-8.29V22.17c9.38,0,22.19,3.92,33.21,12.33,3.73,2.85,7.48,5.56,10.88,8.4h0Z"/><polygon class="cls-1" points="145.39 22.99 153.68 22.99 153.68 51.71 185.43 51.71 185.43 56.75 145.39 56.75 145.39 22.99 145.39 22.99"/><path class="cls-1" d="M53.09,51.28c12.75,0,21.25-4.32,21.25-11.76s-8.5-11.76-21.25-11.76-21.25,4.32-21.25,11.76,8.5,11.76,21.25,11.76h0ZM85.47,39.52c0,9.74-10.27,18.71-32.38,18.71s-32.38-8.97-32.38-18.71,10.27-18.71,32.38-18.71,32.38,8.97,32.38,18.71h0Z"/><polygon class="cls-1" points="258.84 22.99 311.59 22.99 311.59 28.02 267.13 28.02 267.13 37.35 302.09 37.35 302.09 41.27 267.13 41.27 267.13 51.71 311.59 51.71 311.59 56.75 267.13 56.75 258.84 56.75 258.84 22.99 258.84 22.99"/><path class="cls-1" d="M303.74,72.11h1.12v-6.68l6.73,7.05v-9.34h-1.12v6.63l-6.73-7.05v9.4h0ZM289.49,71.25c-1.94,0-3.58-1.58-3.58-3.63s1.47-3.63,3.58-3.63,3.58,1.65,3.58,3.63-1.64,3.63-3.58,3.63h0ZM289.49,62.95c-2.57,0-4.7,2.11-4.7,4.67s2.11,4.67,4.7,4.67,4.7-2.01,4.7-4.67-2.13-4.67-4.7-4.67h0ZM275.17,63.14h-1.12v8.97h1.12v-8.97h0ZM262.51,64.16h2.13v-1.02h-5.38v1.02h2.13v7.95h1.12v-7.95h0ZM243.41,63.14v5.67c0,1.97,1.23,3.49,3.28,3.49s3.28-1.51,3.28-3.49v-5.67h-1.12v5.29c0,1.46-.44,2.82-2.16,2.82s-2.16-1.36-2.16-2.82v-5.29h-1.12ZM228.53,72.11h2.09c1.58,0,3.12-.71,3.12-2.51,0-1.05-.74-2.08-1.8-2.27.61-.31.96-1.07.96-1.73,0-2.02-1.59-2.46-3.28-2.46h-1.09v8.97h0ZM229.65,68h.69c1,0,2.28.26,2.28,1.52s-1.08,1.58-2.12,1.58h-.86v-3.1h0ZM229.65,64.14h.31c1.05,0,1.9.21,1.9,1.47s-.87,1.5-1.93,1.5h-.29v-2.97h0ZM218.37,63.14h-1.12v8.97h1.12v-8.97h0ZM203.37,64.14h.3c1.11,0,2.44.2,2.44,1.61s-1.24,1.64-2.38,1.64h-.36v-3.25h0ZM205,68.21c1.3-.15,2.15-1.23,2.15-2.51,0-.86-.43-1.7-1.18-2.14-.71-.4-1.57-.42-2.37-.42h-1.36v8.97h1.12v-3.79h.46l2.64,3.79h1.36l-2.83-3.9h0ZM190.67,64.16h2.13v-1.02h-5.38v1.02h2.13v7.95h1.12v-7.95h0ZM178.18,64.3c-.49-.87-1.31-1.36-2.31-1.36-1.36,0-2.64.87-2.64,2.32,0,1.25.93,1.83,1.95,2.27l.62.26c.77.32,1.55.74,1.55,1.7s-.69,1.75-1.65,1.75-1.75-.71-1.74-1.7l-1.13.24c.19,1.44,1.32,2.51,2.77,2.51,1.61,0,2.87-1.17,2.87-2.79,0-1.5-.95-2.2-2.22-2.7l-.64-.25c-.56-.21-1.25-.58-1.25-1.28,0-.79.79-1.27,1.5-1.27s1.11.29,1.44.84l.89-.54h0ZM163.05,63.14h-1.12v8.97h1.12v-8.97h0ZM146.51,64.16h.39c2.28,0,4.26.84,4.26,3.46s-1.97,3.46-4.26,3.46h-.39v-6.92h0ZM145.39,72.11h1.82c2.83,0,5.07-1.47,5.07-4.53s-2.28-4.44-5.03-4.44h-1.86v8.97h0Z"/><polyline class="cls-1" points="4.9 87.66 421.05 87.66 421.05 86.55 4.9 86.55"/><polyline class="cls-1" points="421.05 4.11 4.9 4.11 4.9 5.22 421.05 5.22"/></svg>